       <svg version="1.1" id="Layer_1" xmlns="http://www.w3.org/2000/svg" xmlns:xlink="http://www.w3.org/1999/xlink" x="0px" y="0px"
             viewBox="0 0 192 26" style="enable-background:new 0 0 192 26;" xml:space="preserve">
        <style type="text/css">
            .st0{fill:#010101;}
        </style>
        <g id="stripes">
            <polygon class="st0" points="49,25.4 61.2,25.4 71.7,0.6 59.4,0.6 	"/>
            <polygon class="st0" points="24.5,25.4 36.7,25.4 47.2,0.6 34.9,0.6 	"/>
            <polygon class="st0" points="0,25.4 12.2,25.4 22.7,0.6 10.4,0.6 	"/>
        </g>
        <g id="logo">
            <path class="st0" d="M84,0.6L73.5,25.4h6.2l2.2-5.5h10.4l2.1,5.5h6.4L90.3,0.6H84z M83.4,15.8l3.6-9.1h0.1l3.5,9.1H83.4z"/>
            <path class="st0" d="M118.5,12.8c-0.8-0.5-1.7-0.9-2.6-1.2c-0.9-0.2-1.5-0.4-2-0.5c-1.6-0.4-2.9-0.7-3.9-1c-1-0.3-1.8-0.5-2.4-0.8
                c-0.6-0.3-0.9-0.5-1.1-0.8c-0.2-0.3-0.3-1-0.3-1.5c0-0.5,0.1-1,0.4-1.3c0.2-0.3,0.5-0.6,0.9-0.9c0.4-0.2,0.8-0.4,1.2-0.5
                c0.5-0.1,0.9-0.1,1.4-0.1c0.7,0,1.3,0.1,1.9,0.2c0.6,0.1,1.1,0.3,1.6,0.6c0.5,0.3,0.8,0.7,1.1,1.1c0.3,0.5,0.4,1.1,0.5,1.8h5.5
                c0-1.4-0.3-2.7-0.9-3.7c-0.6-1-1.3-1.8-2.3-2.5c-1-0.6-2.1-1.1-3.3-1.4c-1.2-0.3-2.5-0.4-3.9-0.4c-1.2,0-2.3,0.2-3.5,0.5
                c-1.2,0.3-2.2,0.8-3.1,1.4c-0.9,0.6-1.7,1.4-2.2,2.3c-0.6,0.9-0.9,2-0.9,3.3c0,1.1,0.2,2.1,0.7,2.9c0.4,0.8,1,1.5,1.8,2
                c0.7,0.5,1.5,1,2.5,1.3c0.9,0.3,1.9,0.6,2.8,0.9c0.9,0.3,1.9,0.5,2.8,0.7c0.9,0.2,1.7,0.5,2.5,0.7c0.7,0.3,1.3,0.6,1.8,1
                c0.4,0.4,0.7,1,0.7,1.6c0,0.6-0.2,1.1-0.5,1.5c-0.3,0.4-0.8,0.7-1.3,1c-0.5,0.2-1.1,0.4-1.6,0.5c-0.6,0.1-1.1,0.1-1.6,0.1
                c-0.7,0-1.5-0.1-2.2-0.3c-0.7-0.2-1.3-0.4-1.8-0.8c-0.5-0.4-0.9-0.8-1.2-1.4c-0.3-0.6-0.5-1.3-0.5-2.1h-5.5c0,1.5,0.3,2.9,0.9,4
                c0.6,1.1,1.4,2,2.4,2.7c1,0.7,2.2,1.2,3.5,1.6c1.3,0.3,2.7,0.5,4.1,0.5c1.8,0,3.3-0.2,4.7-0.6s2.5-0.9,3.4-1.7
                c0.9-0.7,1.6-1.5,2-2.5c0.5-1,0.7-2,0.7-3.2c0-1.4-0.3-2.2-0.9-3.1C120.1,14,119.4,13.3,118.5,12.8z"/>
            <path class="st0" d="M191.1,8c-0.6-1.6-1.4-3-2.5-4.2s-2.4-2.1-3.9-2.8c-1.5-0.7-3.3-1-5.3-1c-1.9,0-3.7,0.3-5.2,1
                c-1.6,0.7-2.9,1.6-3.9,2.8c-1.1,1.2-1.9,2.6-2.5,4.2c-0.6,1.6-0.9,3.3-0.9,5.2c0,1.8,0.3,3.5,0.9,5.1c0.6,1.6,1.4,2.9,2.5,4.1
                c1.1,1.2,2.4,2.1,3.9,2.7c1.6,0.7,3.3,1,5.2,1c2,0,3.7-0.3,5.3-1c1.5-0.7,2.8-1.6,3.9-2.7c1.1-1.2,1.9-2.5,2.5-4.1
                c0.6-1.6,0.9-3.3,0.9-5.1C192,11.3,191.7,9.5,191.1,8z M186.5,16.2c-0.3,1-0.7,1.9-1.3,2.7c-0.6,0.8-1.3,1.4-2.3,1.9
                c-0.9,0.5-2.1,0.7-3.4,0.7c-1.3,0-2.5-0.2-3.4-0.7c-0.9-0.5-1.7-1.1-2.3-1.9c-0.6-0.8-1-1.7-1.3-2.7c-0.3-1-0.4-2-0.4-3.1
                c0-1.1,0.1-2.2,0.4-3.2c0.3-1,0.7-2,1.3-2.8c0.6-0.8,1.3-1.5,2.3-1.9c0.9-0.5,2.1-0.7,3.4-0.7c1.3,0,2.5,0.2,3.4,0.7
                c0.9,0.5,1.7,1.1,2.3,1.9c0.6,0.8,1,1.7,1.3,2.8c0.3,1,0.4,2.1,0.4,3.2C186.9,14.2,186.8,15.2,186.5,16.2z"/>
            <path class="st0" d="M132.1,18.9c0.9-0.6,1.8-1.2,2.8-1.8c1-0.6,1.9-1.1,2.9-1.7c0.9-0.6,1.8-1.2,2.5-1.9c0.7-0.7,1.4-1.5,1.8-2.4
                c0.5-0.9,0.7-2,0.7-3.2c0-1.2-0.3-2.3-0.8-3.3c-0.5-1-1.2-1.8-2.1-2.5c-0.9-0.7-1.9-1.2-3.1-1.5s-2.4-0.5-3.7-0.5
                c-1.7,0-3.2,0.3-4.5,0.8c-1.3,0.5-2.4,1.2-3.2,2.1c-0.9,0.9-1.5,2-1.9,3.2c-0.2,0.6-0.4,1.2-0.5,1.8h5.6c0.1-0.6,0.4-1.2,0.7-1.7
                c0.3-0.6,0.8-1,1.4-1.4c0.6-0.3,1.3-0.5,2.1-0.5c1.2,0,2.2,0.3,3,1c0.8,0.7,1.2,1.6,1.2,2.8c0,0.8-0.2,1.4-0.6,2
                c-0.4,0.6-0.9,1.1-1.4,1.6c-0.6,0.5-1.2,0.9-1.9,1.3c-0.7,0.4-1.4,0.8-2,1.2c-1.2,0.7-2.3,1.5-3.4,2.2c-1.1,0.7-2,1.5-2.8,2.3
                c-0.8,0.8-1.4,1.8-1.9,2.9c-0.5,1.1-0.7,2.3-0.7,3.8H143v-4.3h-13.3C130.4,20.3,131.2,19.5,132.1,18.9z"/>
            <path class="st0" d="M155.3,18.9c0.9-0.6,1.8-1.2,2.8-1.8c1-0.6,1.9-1.1,2.9-1.7c0.9-0.6,1.8-1.2,2.5-1.9c0.7-0.7,1.4-1.5,1.8-2.4
                c0.5-0.9,0.7-2,0.7-3.2c0-1.2-0.3-2.3-0.8-3.3c-0.5-1-1.2-1.8-2.1-2.5c-0.9-0.7-1.9-1.2-3.1-1.5c-1.2-0.4-2.4-0.5-3.7-0.5
                c-1.7,0-3.2,0.3-4.5,0.8c-1.3,0.5-2.4,1.2-3.2,2.1c-0.9,0.9-1.5,2-1.9,3.2c-0.2,0.6-0.4,1.2-0.5,1.8h5.6c0.1-0.6,0.4-1.2,0.7-1.7
                c0.3-0.6,0.8-1,1.4-1.4c0.6-0.3,1.3-0.5,2.1-0.5c1.2,0,2.2,0.3,3,1c0.8,0.7,1.2,1.6,1.2,2.8c0,0.8-0.2,1.4-0.6,2
                c-0.4,0.6-0.9,1.1-1.4,1.6c-0.6,0.5-1.2,0.9-1.9,1.3c-0.7,0.4-1.4,0.8-2,1.2c-1.2,0.7-2.3,1.5-3.4,2.2c-1.1,0.7-2,1.5-2.8,2.3
                c-0.8,0.8-1.4,1.8-1.9,2.9c-0.5,1.1-0.7,2.3-0.7,3.8h20.6v-4.3h-13.3C153.6,20.3,154.4,19.5,155.3,18.9z"/>
        </g>
        </svg>