<?xml version="1.0" encoding="utf-8"?>
<!-- Generator: Adobe Illustrator 19.1.0, SVG Export Plug-In . SVG Version: 6.00 Build 0)  -->
<svg version="1.1" id="Layer_1" xmlns="http://www.w3.org/2000/svg" xmlns:xlink="http://www.w3.org/1999/xlink" x="0px" y="0px"
	 viewBox="0 0 24 24" style="enable-background:new 0 0 24 24;" xml:space="preserve">
<path d="M14.8,12l6.4-6.4c0.4-0.4,0.4-1,0-1.4l-1.4-1.4c-0.4-0.4-1-0.4-1.4,0L12,9.2L5.6,2.8c-0.4-0.4-1-0.4-1.4,0L2.8,4.2
	c-0.4,0.4-0.4,1,0,1.4L9.2,12l-6.4,6.4c-0.4,0.4-0.4,1,0,1.4l1.4,1.4c0.4,0.4,1,0.4,1.4,0l6.4-6.4l6.4,6.4c0.4,0.4,1,0.4,1.4,0
	l1.4-1.4c0.4-0.4,0.4-1,0-1.4L14.8,12z"/>
</svg>
