<?xml version="1.0" encoding="utf-8"?>
<!-- Generator: Adobe Illustrator 19.1.0, SVG Export Plug-In . SVG Version: 6.00 Build 0)  -->
<svg version="1.1" id="Layer_1" xmlns="http://www.w3.org/2000/svg" xmlns:xlink="http://www.w3.org/1999/xlink" x="0px" y="0px"
	 viewBox="0 0 24 24" style="enable-background:new 0 0 24 24;" xml:space="preserve">
<g>
	<path d="M24,5c0,0.5-0.5,1-1,1H1C0.5,6,0,5.5,0,5V3c0-0.5,0.5-1,1-1h22c0.5,0,1,0.5,1,1V5z M24,13c0,0.5-0.5,1-1,1H1
		c-0.5,0-1-0.5-1-1v-2c0-0.5,0.5-1,1-1h22c0.5,0,1,0.5,1,1V13z M24,21c0,0.5-0.5,1-1,1H1c-0.5,0-1-0.5-1-1v-2c0-0.5,0.5-1,1-1h22
		c0.5,0,1,0.5,1,1V21z"/>
</g>
</svg>
