<?xml version="1.0" encoding="utf-8"?>
<!-- Generator: Adobe Illustrator 19.1.0, SVG Export Plug-In . SVG Version: 6.00 Build 0)  -->
<svg version="1.1" id="Layer_1" xmlns="http://www.w3.org/2000/svg" xmlns:xlink="http://www.w3.org/1999/xlink" x="0px" y="0px"
	 viewBox="0 0 26 26" style="enable-background:new 0 0 26 26;" xml:space="preserve">
<g>
	<path d="M24,26c-0.5,0-1-0.2-1.4-0.6l-5.4-5.3c-1.8,1.3-4,1.9-6.2,1.9C4.9,22,0,17.1,0,11S4.9,0,11,0s11,4.9,11,11
		c0,2.2-0.7,4.4-1.9,6.2l5.4,5.4C25.8,23,26,23.5,26,24C26,25.1,25.1,26,24,26z M11,4c-3.9,0-7,3.1-7,7s3.1,7,7,7s7-3.1,7-7
		S14.9,4,11,4z"/>
</g>
</svg>
